<svg width="104" height="88" fill="none" xmlns="http://www.w3.org/2000/svg"><ellipse cx="52.269" cy="43.66" rx="51.672" ry="43.66" fill="url(#paint0_radial)"/><circle cx="52.468" cy="44.83" r="34.324" fill="#fff" stroke="#8BC34A" stroke-width="1.352"/><path d="M75 48v-5l-7-2.5c-.5-1-.5-1.5-1-2.5l3-6.5-3.5-3.5-6.5 3c-1-.5-1.5-.5-2.5-1L55 23h-5l-2.5 7c-1 .5-1.5.5-2.5 1l-6.5-3-3.5 3.5 3 6.5c-.5 1-.5 1.5-1 2.5L30 43v5l7 2.5c.5 1 .5 1.5 1 2.5l-3 6.5 3.5 3.5 6.5-3c1 .5 1.5 1 2.5 1l2.5 7h5l2.5-7c1-.5 1.5-.5 2.5-1l6.5 3 3.5-3.5-3-6.5c.5-1 1-1.5 1-2.5l7-2.5zm-22.5 5c-4 0-7.5-3.5-7.5-7.5s3.5-7.5 7.5-7.5 7.5 3.5 7.5 7.5-3.5 7.5-7.5 7.5z" fill="#3FAF38"/><defs><radialGradient id="paint0_radial" cx="0" cy="0" r="1" gradientUnits="userSpaceOnUse" gradientTransform="matrix(0 43.66 -51.6716 0 52.269 43.66)"><stop offset=".458" stop-color="#3FAF38" stop-opacity=".85"/><stop offset="1" stop-color="#C4C4C4" stop-opacity="0"/></radialGradient></defs></svg>