<svg width="104" height="88" fill="none" xmlns="http://www.w3.org/2000/svg"><ellipse cx="52.269" cy="43.66" rx="51.672" ry="43.66" fill="url(#paint0_radial)"/><circle cx="52.468" cy="44.83" r="34.324" fill="#fff" stroke="#8BC34A" stroke-width="1.352"/><path fill-rule="evenodd" clip-rule="evenodd" d="M52.241 22c-1.993 0-5.328.75-8.468 1.58-2.8.753-5.583 1.57-8.345 2.454a4.377 4.377 0 00-3.02 3.564c-1.725 12.635 2.276 21.998 7.129 28.193a33.696 33.696 0 007.276 6.925c1.117.77 2.153 1.357 3.032 1.764.813.373 1.68.677 2.396.677.717 0 1.587-.304 2.397-.677.879-.407 1.914-.994 3.031-1.764a33.694 33.694 0 007.28-6.925c4.85-6.195 8.85-15.558 7.125-28.193a4.377 4.377 0 00-3.02-3.564 183.841 183.841 0 00-8.344-2.453C57.57 22.75 54.237 22 52.24 22zm8.592 19.129a1.507 1.507 0 00-2.131-2.132l-7.966 7.969-3.45-3.453a1.506 1.506 0 10-2.131 2.131l4.515 4.516a1.505 1.505 0 002.132 0l9.031-9.031z" fill="#3FAF38"/><defs><radialGradient id="paint0_radial" cx="0" cy="0" r="1" gradientUnits="userSpaceOnUse" gradientTransform="matrix(0 43.66 -51.6716 0 52.269 43.66)"><stop offset=".458" stop-color="#3FAF38" stop-opacity=".85"/><stop offset="1" stop-color="#C4C4C4" stop-opacity="0"/></radialGradient></defs></svg>