<svg width="104" height="88" fill="none" xmlns="http://www.w3.org/2000/svg"><ellipse cx="52.269" cy="43.66" rx="51.672" ry="43.66" fill="url(#paint0_radial)"/><circle cx="52.468" cy="44.83" r="34.324" fill="#fff" stroke="#8BC34A" stroke-width="1.352"/><path d="M44.914 65c-8.605-4.85-10.871-9.44-9.576-15.71.956-4.63 4.088-8.396 4.388-13.016 1.337 2.434 1.896 4.189 2.046 6.732C46.026 37.794 48.837 30.58 49.003 23c0 0 11.08 6.51 11.807 16.344.954-2.027 1.434-5.246.48-7.332C64.153 34.098 80.9 52.62 59.023 65c4.113-8.01 1.061-18.816-6.08-23.808.476 2.147-.36 10.151-3.52 13.668.876-5.877-.833-8.362-.833-8.362s-.586 3.292-2.861 6.617c-2.078 3.037-3.517 6.26-.814 11.885z" fill="#3FAF38"/><defs><radialGradient id="paint0_radial" cx="0" cy="0" r="1" gradientUnits="userSpaceOnUse" gradientTransform="matrix(0 43.66 -51.6716 0 52.269 43.66)"><stop offset=".458" stop-color="#3FAF38" stop-opacity=".85"/><stop offset="1" stop-color="#C4C4C4" stop-opacity="0"/></radialGradient></defs></svg>