<svg width="104" height="88" fill="none" xmlns="http://www.w3.org/2000/svg"><ellipse cx="52.269" cy="43.66" rx="51.672" ry="43.66" fill="url(#paint0_radial)"/><circle cx="52.468" cy="44.83" r="34.324" fill="#fff" stroke="#8BC34A" stroke-width="1.352"/><path d="M52.597 66c-2.844 0-5.564-.554-8.162-1.661-2.598-1.108-4.833-2.598-6.706-4.47-1.873-1.874-3.363-4.11-4.47-6.707A20.602 20.602 0 0131.596 45c0-2.844.554-5.565 1.661-8.162 1.108-2.598 2.598-4.833 4.471-6.706 1.873-1.873 4.108-3.363 6.706-4.47A20.602 20.602 0 0152.597 24c2.844 0 5.565.554 8.162 1.661 2.598 1.108 4.833 2.598 6.706 4.47 1.873 1.874 3.364 4.11 4.471 6.707A20.6 20.6 0 0173.597 45a20.6 20.6 0 01-1.661 8.162c-1.107 2.598-2.598 4.833-4.47 6.706-1.874 1.873-4.11 3.363-6.707 4.47A20.602 20.602 0 0152.597 66zM39.595 31.998L52.597 45V26.625c-2.488 0-4.853.472-7.096 1.415a18.31 18.31 0 00-5.906 3.958z" fill="#3FAF38"/><defs><radialGradient id="paint0_radial" cx="0" cy="0" r="1" gradientUnits="userSpaceOnUse" gradientTransform="matrix(0 43.66 -51.6716 0 52.269 43.66)"><stop offset=".458" stop-color="#3FAF38" stop-opacity=".85"/><stop offset="1" stop-color="#C4C4C4" stop-opacity="0"/></radialGradient></defs></svg>