<svg width="59" height="59" fill="none" xmlns="http://www.w3.org/2000/svg"><path fill-rule="evenodd" clip-rule="evenodd" d="M29.282 54.904a25.622 25.622 0 100-51.244 25.622 25.622 0 000 51.244zm0 3.66a29.282 29.282 0 100-58.564 29.282 29.282 0 000 58.564z" fill="#fff"/><path fill-rule="evenodd" clip-rule="evenodd" d="M17.005 27.986a1.828 1.828 0 012.591 0l9.685 9.688 9.686-9.688a1.832 1.832 0 012.591 2.591l-10.98 10.981a1.832 1.832 0 01-2.592 0l-10.981-10.98a1.829 1.829 0 010-2.592z" fill="#fff"/><path fill-rule="evenodd" clip-rule="evenodd" d="M29.282 16.471a1.83 1.83 0 011.83 1.83v18.302a1.83 1.83 0 01-3.66 0V18.3a1.83 1.83 0 011.83-1.83z" fill="#fff"/></svg>