<svg width="277" height="64" fill="none" xmlns="http://www.w3.org/2000/svg"><path d="M133.83 47.895V24.957h-11.469v-4.048h26.987v4.048h-11.432v22.938h-4.086zm23.006 0c-1.349 0-2.499-.474-3.448-1.424-.95-.95-1.425-2.099-1.425-3.448V31.029c0-1.35.475-2.499 1.425-3.448.949-.95 2.099-1.425 3.448-1.425h12.369c1.349 0 2.498.475 3.448 1.425.949.95 1.424 2.099 1.424 3.448v8.02h-18.066v3.412c0 .55.088.924.263 1.124.2.175.574.262 1.124.262h16.679v4.048h-17.241zm-.825-12.63h13.981V31.59c0-.55-.088-.912-.263-1.087-.175-.2-.537-.3-1.087-.3h-11.244c-.55 0-.924.1-1.124.3-.175.175-.263.537-.263 1.087v3.673zm22.016 21.251v-30.36h17.241c1.35 0 2.499.475 3.449 1.425.949.95 1.424 2.099 1.424 3.448v11.994c0 1.35-.475 2.499-1.424 3.448-.95.95-2.099 1.425-3.449 1.425h-13.193v8.62h-4.048zm5.435-12.669h11.244c.55 0 .912-.087 1.087-.262.2-.2.3-.575.3-1.124V31.59c0-.55-.1-.912-.3-1.087-.175-.2-.537-.3-1.087-.3h-11.244c-.55 0-.925.1-1.125.3-.174.175-.262.537-.262 1.087v10.87c0 .55.088.924.262 1.124.2.175.575.262 1.125.262zm24.253 4.048c-1.35 0-2.499-.474-3.449-1.424-.949-.95-1.424-2.099-1.424-3.448V19.035h4.048v23.426c0 .55.087.924.262 1.124.2.175.575.262 1.125.262h3.486v4.048h-4.048zm11.675 0c-1.349 0-2.499-.474-3.448-1.424-.95-.95-1.425-2.099-1.425-3.448V31.029c0-1.35.475-2.499 1.425-3.448.949-.95 2.099-1.425 3.448-1.425h12.369c1.349 0 2.498.475 3.448 1.425.95.95 1.424 2.099 1.424 3.448v11.994c0 1.35-.474 2.499-1.424 3.448-.95.95-2.099 1.425-3.448 1.425H219.39zm.562-4.048h11.245c.549 0 .912-.087 1.086-.262.175-.2.263-.575.263-1.124V31.59c0-.55-.088-.912-.263-1.087-.174-.2-.537-.3-1.086-.3h-11.245c-.55 0-.924.1-1.124.3-.175.175-.263.537-.263 1.087v10.87c0 .55.088.924.263 1.124.2.175.574.262 1.124.262z" fill="#fff"/><path d="M245.379 47.895c-1.35 0-2.499-.474-3.449-1.424-.949-.95-1.424-2.099-1.424-3.448v-1.574h4.048v1.012c0 .55.088.924.263 1.124.199.175.574.262 1.124.262h16.117c.55 0 .912-.087 1.087-.262.175-.2.262-.575.262-1.124v-4.648c0-.575-.087-.95-.262-1.124-.175-.175-.537-.263-1.087-.263h-16.679c-1.35 0-2.499-.474-3.449-1.424-.949-.95-1.424-2.099-1.424-3.448v-5.772c0-1.35.475-2.5 1.424-3.449.95-.95 2.099-1.424 3.449-1.424h17.241c1.349 0 2.499.475 3.448 1.424.95.95 1.425 2.1 1.425 3.449v1.574h-4.086v-1.012c0-.55-.087-.912-.262-1.087-.175-.2-.537-.3-1.087-.3h-16.117c-.55 0-.925.1-1.124.3-.175.175-.263.537-.263 1.087v4.647c0 .575.088.95.263 1.125.199.15.574.225 1.124.225h16.679c1.349 0 2.499.487 3.448 1.462.95.95 1.425 2.099 1.425 3.448v5.772c0 1.35-.475 2.499-1.425 3.448-.949.95-2.099 1.425-3.448 1.425h-17.241z" fill="#32CC28"/><ellipse cx="34.692" cy="31.781" rx="33.967" ry="31.625" fill="#3FAF38"/></svg>