<svg width="38" height="37" fill="none" xmlns="http://www.w3.org/2000/svg"><path d="M28.11 26.827a13.283 13.283 0 01-6.567 3.594 13.587 13.587 0 01-7.528-.484 13.13 13.13 0 01-6.018-4.403 12.474 12.474 0 01-2.53-6.875 12.404 12.404 0 011.788-7.09 13.002 13.002 0 015.52-4.976 13.557 13.557 0 017.437-1.228 13.388 13.388 0 016.913 2.924l-1.702 1.943a10.71 10.71 0 00-5.53-2.339c-2.04-.241-4.109.1-5.95.982a10.401 10.401 0 00-4.416 3.981 9.924 9.924 0 00-1.43 5.672 9.98 9.98 0 002.024 5.5 10.504 10.504 0 004.814 3.523c1.925.694 4.019.829 6.023.387a10.627 10.627 0 005.253-2.875l1.9 1.764z" fill="#3FAF38"/><ellipse cx="18.683" cy="18.268" rx="7.058" ry="6.643" fill="#F90"/></svg>