<svg width="45" height="42" fill="none" xmlns="http://www.w3.org/2000/svg"><path d="M33.696 30.817c-2.133 2.059-4.87 3.494-7.872 4.129a16.96 16.96 0 01-9.024-.556c-2.886-.997-5.393-2.755-7.214-5.057-1.82-2.302-2.875-5.048-3.033-7.899-.158-2.85.587-5.682 2.144-8.144 1.556-2.463 3.856-4.45 6.616-5.717a16.877 16.877 0 018.916-1.41c3.056.346 5.937 1.514 8.287 3.36l-2.04 2.231c-1.88-1.476-4.185-2.41-6.63-2.687a13.502 13.502 0 00-7.133 1.128c-2.208 1.014-4.048 2.603-5.293 4.573a11.03 11.03 0 00-1.715 6.516c.127 2.28.97 4.477 2.427 6.319 1.456 1.841 3.462 3.248 5.77 4.046 2.309.798 4.819.952 7.22.444 2.402-.508 4.591-1.656 6.298-3.303l2.276 2.027z" fill="#FF8A00"/><ellipse cx="22.484" cy="20.84" rx="8.485" ry="7.865" fill="#3FAF38"/></svg>