<svg width="73" height="73" fill="none" xmlns="http://www.w3.org/2000/svg"><path d="M53.463 67.531l.318-.17.352.078 17.565 3.904-3.904-17.565-.078-.352.17-.318a34.887 34.887 0 004.12-16.501v-.002c0-19.356-15.69-35.047-35.046-35.047-19.357 0-35.047 15.69-35.047 35.047s15.69 35.047 35.047 35.047h.001a34.887 34.887 0 0016.502-4.12zm-2.478-4.634h-.001a29.628 29.628 0 01-14.026 3.498 29.79 29.79 0 1129.791-29.79c0 4.965-1.21 9.748-3.5 14.025 0 0 0 0 0 0l-1.088 2.033 2.282 10.264.332 1.493-1.494-.332-10.262-2.28-2.034 1.09z" fill="#40AD2E" stroke="#fff" stroke-width="1.947"/><ellipse cx="36.96" cy="36.362" rx="24.825" ry="23.608" fill="#2CB724"/><mask id="path-3-inside-1" fill="#fff"><path fill-rule="evenodd" clip-rule="evenodd" d="M36.968 23.462a1.407 1.407 0 011.407 1.408v11.256a1.407 1.407 0 01-1.407 1.407H25.71a1.407 1.407 0 110-2.814h9.85v-9.85a1.407 1.407 0 011.407-1.407z"/></mask><path d="M35.56 34.719v2.92h2.921v-2.92h-2.92zm1.408-8.336c-.402 0-.787-.16-1.07-.443l4.13-4.13a4.328 4.328 0 00-3.06-1.268v5.841zm-1.07-.443a1.513 1.513 0 01-.444-1.07h5.841a4.328 4.328 0 00-1.267-3.06l-4.13 4.13zm-.444-1.07v11.256h5.841V24.87h-5.84zm0 11.256c0-.401.16-.786.444-1.07l4.13 4.13a4.328 4.328 0 001.267-3.06h-5.84zm.444-1.07a1.513 1.513 0 011.07-.444v5.842a4.328 4.328 0 003.06-1.268l-4.13-4.13zm1.07-.444H25.71v5.842h11.257v-5.842zm-11.257 0c.402 0 .787.16 1.07.444l-4.13 4.13a4.328 4.328 0 003.06 1.268v-5.842zm1.07.444c.284.284.444.669.444 1.07h-5.841a4.33 4.33 0 001.267 3.06l4.13-4.13zm.444 1.07c0 .401-.16.786-.444 1.07l-4.13-4.13a4.328 4.328 0 00-1.267 3.06h5.84zm-.444 1.07a1.514 1.514 0 01-1.07.444v-5.842a4.328 4.328 0 00-3.06 1.268l4.13 4.13zm-1.07.444h9.85v-5.842h-9.85v5.841zm12.77-2.921v-9.85h-5.84v9.85h5.84zm0-9.85c0 .402-.16.787-.443 1.07l-4.13-4.13a4.328 4.328 0 00-1.268 3.06h5.841zm-.443 1.07a1.514 1.514 0 01-1.07.444v-5.841a4.328 4.328 0 00-3.06 1.267l4.13 4.13z" fill="#fff" mask="url(#path-3-inside-1)"/><mask id="path-5-inside-2" fill="#fff"><path fill-rule="evenodd" clip-rule="evenodd" d="M35.561 36.126a1.407 1.407 0 011.407-1.407h11.257a1.407 1.407 0 010 2.814h-9.85v9.85a1.407 1.407 0 01-2.814 0V36.126z"/></mask><path d="M38.375 37.533v-2.92h-2.92v2.92h2.92zm.107-1.407c0 .402-.16.787-.444 1.07l-4.13-4.13a4.328 4.328 0 00-1.267 3.06h5.84zm-.444 1.07a1.514 1.514 0 01-1.07.444v-5.841a4.328 4.328 0 00-3.06 1.267l4.13 4.13zm-1.07.444h11.257v-5.841H36.968v5.84zm11.257 0a1.51 1.51 0 01-1.07-.444l4.13-4.13a4.328 4.328 0 00-3.06-1.268v5.842zm-1.07-.444a1.514 1.514 0 01-.444-1.07h5.841a4.328 4.328 0 00-1.267-3.06l-4.13 4.13zm-.444-1.07c0-.401.16-.786.443-1.07l4.13 4.13a4.328 4.328 0 001.268-3.06h-5.841zm.443-1.07a1.514 1.514 0 011.07-.443v5.84a4.328 4.328 0 003.06-1.267l-4.13-4.13zm1.07-.443h-9.849v5.84h9.85v-5.84zm-12.77 2.92v9.85h5.842v-9.85h-5.841zm0 9.85c0-.402.16-.787.444-1.07l4.13 4.13a4.328 4.328 0 001.268-3.06h-5.841zm.444-1.07a1.514 1.514 0 011.07-.444v5.841a4.327 4.327 0 003.06-1.267l-4.13-4.13zm1.07-.444c.402 0 .786.16 1.07.443l-4.13 4.13a4.328 4.328 0 003.06 1.268v-5.84zm1.07.443c.284.284.444.67.444 1.07H32.64c0 1.148.456 2.25 1.267 3.06l4.13-4.13zm.444 1.07V36.127H32.64v11.257h5.84z" fill="#fff" mask="url(#path-5-inside-2)"/></svg>