<svg width="73" height="73" fill="none" xmlns="http://www.w3.org/2000/svg"><path d="M20.098 67.218l-.318-.17-.352.078L1.863 71.03l3.904-17.565.078-.352-.17-.318a34.888 34.888 0 01-4.12-16.502v-.001c0-19.357 15.69-35.047 35.046-35.047 19.357 0 35.047 15.69 35.047 35.047 0 19.356-15.69 35.047-35.047 35.047H36.6a34.889 34.889 0 01-16.502-4.121zm2.478-4.634h0a29.628 29.628 0 0014.027 3.498 29.79 29.79 0 10-29.792-29.79c0 4.965 1.21 9.747 3.501 14.024v.001L11.4 52.35 9.12 62.613l-.333 1.494 1.494-.332 10.262-2.281 2.034 1.09z" fill="#40AD2E" stroke="#fff" stroke-width="1.947"/><ellipse rx="24.825" ry="23.608" transform="matrix(-1 0 0 1 36.6 36.049)" fill="#2CB724"/><mask id="path-3-inside-1" fill="#fff"><path fill-rule="evenodd" clip-rule="evenodd" d="M36.593 23.15a1.407 1.407 0 00-1.407 1.406v11.257a1.407 1.407 0 001.407 1.407h11.256a1.407 1.407 0 000-2.814H38v-9.85a1.407 1.407 0 00-1.407-1.407z"/></mask><path d="M38 34.406v2.92h-2.92v-2.92H38zm-1.407-8.336c.401 0 .786-.16 1.07-.443l-4.13-4.13a4.328 4.328 0 013.06-1.268v5.84zm1.07-.443c.284-.284.444-.67.444-1.07h-5.842c0-1.148.456-2.25 1.268-3.06l4.13 4.13zm.444-1.07v11.256h-5.842V24.556h5.841zm0 11.256c0-.402-.16-.787-.444-1.07l-4.13 4.13a4.327 4.327 0 01-1.268-3.06h5.841zm-.444-1.07a1.514 1.514 0 00-1.07-.444v5.841a4.327 4.327 0 01-3.06-1.267l4.13-4.13zm-1.07-.444h11.256v5.841H36.593V34.3zm11.256 0c-.401 0-.786.16-1.07.444l4.13 4.13a4.328 4.328 0 01-3.06 1.267V34.3zm-1.07.444a1.514 1.514 0 00-.443 1.07h5.841a4.328 4.328 0 01-1.267 3.06l-4.13-4.13zm-.443 1.07c0 .401.16.786.443 1.07l4.13-4.13a4.328 4.328 0 011.268 3.06h-5.841zm.443 1.07c.284.284.669.443 1.07.443v-5.84c1.148 0 2.249.455 3.06 1.267l-4.13 4.13zm1.07.443H38v-5.84h9.85v5.84zm-12.77-2.92v-9.85h5.842v9.85h-5.842zm0-9.85c0 .402.16.787.444 1.07l4.13-4.13a4.328 4.328 0 011.268 3.06h-5.842zm.444 1.07c.284.284.668.444 1.07.444v-5.841a4.33 4.33 0 013.06 1.267l-4.13 4.13z" fill="#fff" mask="url(#path-3-inside-1)"/><mask id="path-5-inside-2" fill="#fff"><path fill-rule="evenodd" clip-rule="evenodd" d="M38 35.813a1.407 1.407 0 00-1.407-1.407H25.336a1.407 1.407 0 100 2.814h9.85v9.85a1.407 1.407 0 002.814 0V35.812z"/></mask><path d="M35.186 37.22V34.3h2.92v2.92h-2.92zm-.107-1.407c0 .401.16.786.444 1.07l4.13-4.13a4.328 4.328 0 011.267 3.06h-5.84zm.444 1.07a1.51 1.51 0 001.07.444v-5.842c1.148 0 2.248.456 3.06 1.268l-4.13 4.13zm1.07.444H25.336v-5.842h11.257v5.842zm-11.257 0c.402 0 .787-.16 1.07-.444l-4.13-4.13a4.328 4.328 0 013.06-1.268v5.842zm1.07-.444a1.51 1.51 0 00.444-1.07h-5.841c0-1.148.456-2.249 1.267-3.06l4.13 4.13zm.444-1.07c0-.402-.16-.786-.443-1.07l-4.13 4.13a4.328 4.328 0 01-1.268-3.06h5.841zm-.443-1.07a1.514 1.514 0 00-1.07-.444v5.842a4.328 4.328 0 01-3.06-1.268l4.13-4.13zm-1.07-.444h9.849v5.842h-9.85v-5.842zm12.77 2.921v9.85h-5.842v-9.85h5.841zm0 9.85c0-.402-.16-.787-.444-1.07l-4.13 4.13a4.328 4.328 0 01-1.268-3.06h5.841zM37.662 46a1.514 1.514 0 00-1.07-.444v5.841a4.328 4.328 0 01-3.06-1.268l4.13-4.13zm-1.07-.444c-.402 0-.787.16-1.07.443l4.13 4.13a4.328 4.328 0 01-3.06 1.268v-5.841zm-1.07.443a1.513 1.513 0 00-.444 1.07h5.841a4.327 4.327 0 01-1.267 3.06L35.523 46zm-.444 1.07V35.813h5.841v11.256h-5.84z" fill="#fff" mask="url(#path-5-inside-2)"/></svg>