<svg width="106" height="106" fill="none" xmlns="http://www.w3.org/2000/svg"><path d="M42.629 18.305l.345-.106.193-.305 9.903-15.65 9.983 15.6.194.303.345.104a35.858 35.858 0 0115.01 8.96h.002c14.103 14.032 14.161 36.838.13 50.941-14.031 14.103-36.837 14.162-50.94.13-14.104-14.031-14.162-36.837-.13-50.94v-.001a35.858 35.858 0 0114.965-9.036zm1.594 5.21l-.001.001a30.402 30.402 0 00-12.695 7.672 30.568 30.568 0 1043.232-.112 30.368 30.368 0 00-12.736-7.603s0 0 0 0l-2.278-.684-5.825-9.104-.824-1.288-.818 1.293-5.779 9.132-2.276.694z" fill="#40AD2E" stroke="#fff" stroke-width="1.947"/><ellipse rx="25.496" ry="24.246" transform="scale(1 -1) rotate(45.146 90.342 37.736)" fill="#2CB724"/><mask id="path-3-inside-1" fill="#fff"><path fill-rule="evenodd" clip-rule="evenodd" d="M66.558 53.089a1.445 1.445 0 00-1.445-1.446h-11.56a1.445 1.445 0 00-1.445 1.446v11.56a1.445 1.445 0 102.89 0V54.534h10.115a1.445 1.445 0 001.445-1.445z"/></mask><path d="M54.998 54.534h-2.92v-2.921h2.92v2.92zm8.64-1.445c0 .39.155.766.432 1.043l4.13-4.13a4.366 4.366 0 011.28 3.087h-5.842zm.432 1.043c.277.277.652.432 1.043.432v-5.841c1.158 0 2.269.46 3.087 1.279l-4.13 4.13zm1.043.432h-11.56v-5.841h11.56v5.841zm-11.56 0c.391 0 .766-.155 1.043-.432l-4.13-4.13a4.366 4.366 0 013.087-1.28v5.842zm1.043-.432c.277-.277.432-.652.432-1.043h-5.84c0-1.158.459-2.269 1.278-3.087l4.13 4.13zm.432-1.043v11.56h-5.84V53.09h5.84zm0 11.56c0-.391-.155-.767-.432-1.043l-4.13 4.13a4.365 4.365 0 01-1.279-3.087h5.841zm-.432-1.043a1.475 1.475 0 00-1.043-.432v5.84a4.365 4.365 0 01-3.087-1.278l4.13-4.13zm-1.043-.432c-.392 0-.767.155-1.044.432l4.13 4.13a4.365 4.365 0 01-3.086 1.279v-5.841zm-1.044.432a1.475 1.475 0 00-.432 1.043h5.841c0 1.158-.46 2.268-1.278 3.087l-4.13-4.13zm-.432 1.043V54.534h5.841v10.115h-5.84zm2.92-13.036h10.116v5.841H54.998v-5.841zm10.116 0c-.39 0-.766.156-1.043.432l4.13 4.13a4.366 4.366 0 01-3.087 1.28v-5.842zm-1.043.432a1.475 1.475 0 00-.432 1.044h5.841c0 1.157-.46 2.268-1.279 3.087l-4.13-4.13z" fill="#fff" mask="url(#path-3-inside-1)"/><mask id="path-5-inside-2" fill="#fff"><path fill-rule="evenodd" clip-rule="evenodd" d="M53.552 54.533a1.445 1.445 0 001.445-1.445v-11.56a1.445 1.445 0 10-2.89 0v10.115H41.99a1.445 1.445 0 000 2.89h11.56z"/></mask><path d="M52.107 51.643h2.92v2.92h-2.92v-2.92zm1.445-.03c-.391 0-.767.155-1.043.432l4.13 4.13a4.366 4.366 0 01-3.087 1.279v-5.841zm-1.043.432a1.476 1.476 0 00-.433 1.043h5.842a4.36 4.36 0 01-1.28 3.087l-4.13-4.13zm-.433 1.043v-11.56h5.842v11.56h-5.842zm0-11.56c0 .391.156.766.433 1.043l4.13-4.13a4.366 4.366 0 011.279 3.087h-5.842zm.433 1.043c.276.277.652.432 1.043.432v-5.841c1.158 0 2.268.46 3.087 1.279l-4.13 4.13zm1.043.432c.391 0 .767-.155 1.043-.432l-4.13-4.13a4.366 4.366 0 013.087-1.279v5.841zm1.043-.432c.277-.277.432-.652.432-1.043h-5.84c0-1.158.46-2.269 1.278-3.087l4.13 4.13zm.432-1.043v10.115h-5.84V41.528h5.84zm-2.92 13.036H41.99v-5.841h10.116v5.84zm-10.116 0a1.48 1.48 0 001.044-.432l-4.13-4.13a4.366 4.366 0 013.086-1.28v5.842zm1.044-.432a1.48 1.48 0 00.432-1.044h-5.841a4.37 4.37 0 011.278-3.087l4.13 4.13zm.432-1.044c0-.391-.156-.766-.432-1.043l-4.13 4.13a4.366 4.366 0 01-1.28-3.087h5.842zm-.432-1.043a1.476 1.476 0 00-1.044-.432v5.841a4.366 4.366 0 01-3.087-1.279l4.13-4.13zm-1.044-.432h11.56v5.841h-11.56v-5.841z" fill="#fff" mask="url(#path-5-inside-2)"/></svg>