<svg width="140" height="133" fill="none" xmlns="http://www.w3.org/2000/svg"><path d="M15.451 132.389s13.522-51.126 59.656-51.126H9.942l5.51 51.126z" fill="url(#paint0_radial)"/><path d="M126.13 0H16.324C9.8.106-1.696 3.574.21 25.251 2.074 46.432 14.432 125.938 15.38 132.02l.078.378s1.832-51.134 31.295-51.134h62.997c1.33 0 2.563 0 3.714-.041 10.902-.715 13.491-6.128 16.066-14.623 2.771-9.138 5.914-23.402 8.688-37.219C140.963 15.761 136.868.435 126.13 0z" fill="url(#paint1_linear)"/><path d="M131.952 2.046c5.471 5.174 7.216 16.264 5.189 26.42-2.773 13.817-5.917 28.08-8.687 37.218-2.579 8.495-5.164 13.908-16.066 14.623-1.152.03-2.385.041-3.715.041h-63.01c-24.373 0-29.841 34.991-31.002 47.08.357 2.322.605 3.914.712 4.591l.078.379s1.839-51.134 31.301-51.134h62.997c1.33 0 2.563 0 3.715-.042 10.902-.715 13.49-6.127 16.066-14.622 2.77-9.139 5.914-23.402 8.687-37.219 2.177-10.795.057-22.668-6.265-27.335z" fill="url(#paint2_linear)"/><path d="M72.254 31.431a7.444 7.444 0 017.444 7.444 2.482 2.482 0 004.963 0 12.407 12.407 0 00-12.407-12.407 2.481 2.481 0 100 4.963z" fill="#fff"/><path d="M72.254 21.505a17.37 17.37 0 0117.37 17.37 2.481 2.481 0 104.963 0 22.333 22.333 0 00-22.333-22.332 2.481 2.481 0 100 4.962zM93.967 51.06a2.482 2.482 0 00-1.787-1.613l-14.889-3.4a2.482 2.482 0 00-2.283.646c-.347.322-.372.347-1.985 3.424A24.591 24.591 0 0160.94 37.982c3.151-1.588 3.176-1.588 3.498-1.96a2.482 2.482 0 00.646-2.283l-3.4-14.715a2.482 2.482 0 00-1.613-1.787 9.405 9.405 0 00-1.786-.446 9.779 9.779 0 00-1.911-.248 11.415 11.415 0 00-11.415 11.414 38.263 38.263 0 0038.214 38.214 11.415 11.415 0 0011.415-11.414c0-.632-.05-1.263-.149-1.886a10.774 10.774 0 00-.471-1.812z" fill="#fff"/><defs><linearGradient id="paint1_linear" x1="139.541" y1="80.005" x2="-21.594" y2="57.622" gradientUnits="userSpaceOnUse"><stop stop-color="#18F10A"/><stop offset=".11" stop-color="#3BA934"/><stop offset=".24" stop-color="#3BBC33"/><stop offset=".84" stop-color="#31CD27"/><stop offset="1" stop-color="#0FFF00"/></linearGradient><linearGradient id="paint2_linear" x1="187.95" y1="-19.105" x2="-8.816" y2="104.316" gradientUnits="userSpaceOnUse"><stop stop-color="#33CC2A"/><stop offset=".1" stop-color="#3A8D35"/><stop offset=".24" stop-color="#3BBC33"/><stop offset=".84" stop-color="#3BBC33"/><stop offset="1" stop-color="#31D027"/></linearGradient><radialGradient id="paint0_radial" cx="0" cy="0" r="1" gradientUnits="userSpaceOnUse" gradientTransform="matrix(-41.3936 0 0 -49.9045 40 99.826)"><stop stop-color="#3BBC33"/><stop offset="1" stop-color="#2C7927"/></radialGradient></defs></svg>