<svg width="297" height="585" fill="none" xmlns="http://www.w3.org/2000/svg"><path d="M281.086.795H15.991c-4.16 0-8.148 1.402-11.09 3.898-2.94 2.495-4.593 5.88-4.593 9.409v136.857L296.77 90.665V14.102c-.006-3.527-1.66-6.909-4.6-9.403-2.94-2.494-6.925-3.898-11.083-3.903z" fill="#40AD2E"/><path opacity=".5" d="M118.697 126.877h178.072V90.702l-178.072 36.175z" fill="url(#paint0_linear)"/><path opacity=".5" d="M.308 556.63v14.373c.023 3.514 1.686 6.878 4.625 9.355 2.94 2.477 6.915 3.865 11.058 3.86h265.095c4.156 0 8.141-1.399 11.082-3.891 2.94-2.491 4.595-5.871 4.601-9.397v-52.501L.309 556.63z" fill="url(#paint1_linear)"/><defs><linearGradient id="paint0_linear" x1="11793.1" y1="2587.92" x2="26672.9" y2="2587.92" gradientUnits="userSpaceOnUse"><stop stop-color="#80CA3A"/><stop offset="1" stop-color="#E0D636"/></linearGradient><linearGradient id="paint1_linear" x1=".308" y1="21165" x2="44211.5" y2="21165" gradientUnits="userSpaceOnUse"><stop stop-color="#80CA3A"/><stop offset="1" stop-color="#E0D636"/></linearGradient></defs></svg>