<svg width="26" height="28" fill="none" xmlns="http://www.w3.org/2000/svg"><rect x=".037" y=".597" width="25.219" height="26.46" rx="6.615" fill="url(#paint0_linear)"/><path d="M12.644 8.736c-2.685 0-4.852 2.273-4.852 5.09 0 2.818 2.167 5.092 4.852 5.092 2.685 0 4.852-2.274 4.852-5.091 0-2.818-2.167-5.091-4.852-5.091zm0 8.4c-1.736 0-3.154-1.487-3.154-3.31 0-1.821 1.418-3.308 3.154-3.308 1.737 0 3.154 1.487 3.154 3.309s-1.417 3.309-3.154 3.309zm5.051-9.796c-.627 0-1.133.532-1.133 1.19 0 .657.506 1.189 1.133 1.189s1.133-.53 1.133-1.19c0-.156-.029-.31-.085-.455a1.194 1.194 0 00-.246-.386 1.13 1.13 0 00-.368-.257 1.086 1.086 0 00-.434-.09zm4.408 6.487c0-1.37.012-2.728-.062-4.096-.073-1.589-.419-2.999-1.526-4.16-1.11-1.165-2.45-1.524-3.965-1.601-1.306-.077-2.6-.065-3.904-.065-1.306 0-2.6-.012-3.903.065-1.514.077-2.858.439-3.965 1.6-1.11 1.165-1.453 2.572-1.526 4.16-.074 1.371-.062 2.729-.062 4.097 0 1.367-.012 2.728.062 4.095.073 1.589.418 2.999 1.526 4.16 1.11 1.165 2.45 1.525 3.965 1.602 1.306.077 2.6.064 3.903.064 1.306 0 2.6.013 3.904-.064 1.514-.077 2.858-.44 3.965-1.601 1.11-1.164 1.453-2.572 1.526-4.16.076-1.368.062-2.726.062-4.096zM20.02 19.68a3.17 3.17 0 01-.715 1.137c-.333.35-.653.568-1.083.75-1.245.518-4.2.401-5.579.401-1.38 0-4.337.117-5.581-.4a2.995 2.995 0 01-1.084-.749 3.193 3.193 0 01-.714-1.137c-.492-1.308-.381-4.408-.381-5.855s-.111-4.55.38-5.856c.174-.452.382-.79.715-1.137a3.05 3.05 0 011.084-.75c1.244-.516 4.202-.4 5.581-.4 1.38 0 4.337-.116 5.581.4.43.182.752.4 1.084.75.333.35.541.685.714 1.137.492 1.306.381 4.409.381 5.856s.111 4.547-.383 5.853z" fill="#fff"/><defs><linearGradient id="paint0_linear" x1="12.646" y1=".597" x2="12.646" y2="27.056" gradientUnits="userSpaceOnUse"><stop stop-color="#565AD2"/><stop offset=".26" stop-color="#8D36A5"/><stop offset=".469" stop-color="#AA3785"/><stop offset=".724" stop-color="#E35954"/><stop offset="1" stop-color="#F9C56E"/></linearGradient></defs></svg>