<svg width="355" height="226" fill="none" xmlns="http://www.w3.org/2000/svg"><path d="M39.982 225.172s34.372-86.911 151.645-86.911H25.977l14.005 86.911z" fill="url(#paint0_radial)"/><path d="M321.325.119H42.2C25.62.299-3.61 6.195 1.24 43.044 5.977 79.05 37.39 214.202 39.8 224.541l.199.643s4.657-86.924 79.55-86.924h160.139c3.381 0 6.515 0 9.442-.07 27.713-1.216 34.293-10.417 40.84-24.858 7.042-15.534 15.033-39.78 22.083-63.268C359.031 26.91 348.624.858 321.325.119z" fill="url(#paint1_linear)"/><path d="M336.126 3.597c13.908 8.795 18.342 27.648 13.191 44.911-7.05 23.488-15.041 47.735-22.083 63.269-6.556 14.441-13.127 23.642-40.84 24.857-2.927.052-6.061.071-9.443.071h-160.17c-61.958 0-75.858 59.481-78.809 80.031.91 3.948 1.54 6.655 1.81 7.805l.2.643s4.673-86.923 79.566-86.923h160.139c3.381 0 6.515 0 9.442-.071 27.713-1.215 34.293-10.416 40.84-24.857 7.042-15.534 15.033-39.78 22.083-63.269 5.535-18.35.144-38.533-15.926-46.467z" fill="url(#paint2_linear)"/><defs><linearGradient id="paint1_linear" x1="355.418" y1="136.12" x2="-44.822" y2="52.985" gradientUnits="userSpaceOnUse"><stop stop-color="#18F10A"/><stop offset=".11" stop-color="#3BA934"/><stop offset=".24" stop-color="#3BBC33"/><stop offset=".84" stop-color="#31CD27"/><stop offset="1" stop-color="#0FFF00"/></linearGradient><linearGradient id="paint2_linear" x1="478.472" y1="-32.358" x2="107.699" y2="315.413" gradientUnits="userSpaceOnUse"><stop stop-color="#33CC2A"/><stop offset=".1" stop-color="#3A8D35"/><stop offset=".24" stop-color="#3BBC33"/><stop offset=".84" stop-color="#3BBC33"/><stop offset="1" stop-color="#31D027"/></linearGradient><radialGradient id="paint0_radial" cx="0" cy="0" r="1" gradientUnits="userSpaceOnUse" gradientTransform="matrix(-105.222 0 0 -84.8338 102.386 169.818)"><stop stop-color="#3BBC33"/><stop offset="1" stop-color="#2C7927"/></radialGradient></defs></svg>