<svg width="26" height="28" fill="none" xmlns="http://www.w3.org/2000/svg"><g clip-path="url(#clip0)"><path d="M12.635.746C5.67.746.025 6.67.025 13.976s5.646 13.23 12.61 13.23c6.964 0 12.61-5.923 12.61-13.23S19.598.746 12.634.746z" fill="#40B3E0"/><path d="M18.77 8.356L16.518 20.27s-.315.826-1.181.43l-5.197-4.18-1.89-.96-3.182-1.123s-.488-.182-.535-.578c-.047-.397.551-.611.551-.611L17.73 8.041s1.04-.479 1.04.314" fill="#fff"/><path d="M9.74 20.136s-.152-.014-.34-.642c-.19-.628-1.15-3.933-1.15-3.933l7.638-5.09s.441-.28.425 0c0 0 .079.05-.157.281-.236.232-6 5.668-6 5.668" fill="#D2E5F1"/><path d="M12.132 18.122l-2.055 1.967s-.161.128-.337.048l.394-3.653" fill="#B5CFE4"/></g><defs><clipPath id="clip0"><path fill="#fff" transform="translate(.025 .746)" d="M0 0h25.219v26.46H0z"/></clipPath></defs></svg>