<svg width="26" height="28" fill="none" xmlns="http://www.w3.org/2000/svg"><rect x=".552" y=".746" width="25.219" height="26.46" rx="6.615" fill="#8540DE"/><path d="M19.264 5.825c-.412-.416-2.08-1.74-5.8-1.758 0 0-4.386-.288-6.522 1.858-1.188 1.3-1.606 3.207-1.652 5.57-.045 2.362-.1 6.789 3.798 7.99h.003l-.003 1.832s-.026.743.422.892c.539.185.857-.38 1.373-.988.283-.333.672-.824.968-1.197 2.668.245 4.716-.316 4.95-.398.539-.191 3.587-.618 4.08-5.044.513-4.569-.247-7.453-1.617-8.757zm.452 8.423c-.42 3.695-2.89 3.929-3.344 4.089-.195.067-1.996.558-4.259.398 0 0-1.688 2.227-2.213 2.806-.172.189-.36.17-.357-.202 0-.245.013-3.045.013-3.045-.004 0-.004 0 0 0-3.305-1.002-3.11-4.77-3.074-6.742.035-1.972.376-3.588 1.382-4.675 1.808-1.794 5.532-1.528 5.532-1.528 3.145.014 4.651 1.052 5.002 1.4 1.159 1.087 1.75 3.687 1.318 7.499zm-4.512-2.87a.211.211 0 01-.42.02c-.035-.78-.37-1.16-1.057-1.203-.28-.018-.254-.476.022-.459.906.054 1.41.622 1.455 1.642zm.659.401c.032-1.506-.828-2.686-2.46-2.817-.277-.021-.248-.48.028-.458 1.883.149 2.886 1.566 2.85 3.286-.003.305-.425.291-.418-.011zm1.525.476a.21.21 0 01-.419.004c-.019-2.896-1.782-4.473-3.92-4.49-.277-.004-.277-.459 0-.459 2.392.018 4.317 1.826 4.34 4.945zm-.367 3.485v.007c-.35.675-1.006 1.421-1.681 1.183l-.006-.01c-.685-.21-2.299-1.12-3.318-2.008a8.934 8.934 0 01-1.376-1.506 11.674 11.674 0 01-1-1.655c-.691-1.368-.844-1.98-.844-1.98-.218-.738.46-1.456 1.08-1.84h.007c.299-.17.585-.113.776.14 0 0 .403.525.575.784.162.242.38.63.493.846.198.387.075.781-.12.945l-.39.34c-.197.175-.171.498-.171.498s.577 2.391 2.736 2.995c0 0 .295.028.454-.188l.312-.427c.15-.213.51-.348.863-.131.478.295 1.085.753 1.487 1.169.227.202.28.511.123.838z" fill="#fff"/></svg>