<svg width="26" height="28" fill="none" xmlns="http://www.w3.org/2000/svg"><path d="M17.2.943H9.46C2.395.943.72 2.7.72 10.112v8.122c0 7.411 1.675 9.168 8.74 9.168h7.74c7.065 0 8.74-1.757 8.74-9.168v-8.122c0-7.412-1.692-9.17-8.74-9.17zm3.88 18.875h-1.831c-.694 0-.907-.577-2.155-1.904-1.083-1.102-1.563-1.248-1.83-1.248-.378 0-.485.112-.485.655v1.735c0 .466-.14.745-1.314.745-1.941 0-4.096-1.232-5.607-3.527C5.58 12.91 4.957 10.391 4.957 9.87c0-.28.106-.542.62-.542H7.41c.464 0 .64.224.82.745.908 2.747 2.419 5.154 3.042 5.154.23 0 .337-.111.337-.727v-2.838c-.07-1.309-.727-1.421-.727-1.886a.45.45 0 01.46-.448h2.884c.39 0 .534.224.534.706v3.828c0 .414.177.56.283.56.23 0 .427-.146.853-.595 1.318-1.55 2.262-3.94 2.262-3.94.123-.28.337-.543.8-.543h1.835c.55 0 .673.297.55.71-.23 1.12-2.475 4.445-2.475 4.445-.193.336-.267.482 0 .856.197.28.838.862 1.264 1.383.784.934 1.387 1.718 1.548 2.26.18.539-.086.82-.604.82h.003z" fill="#1B6798"/></svg>